<?xml version="1.0" encoding="utf-8"?>
<!-- Generator: Adobe Illustrator 15.0.0, SVG Export Plug-In . SVG Version: 6.00 Build 0)  -->
<!DOCTYPE svg PUBLIC "-//W3C//DTD SVG 1.1//EN" "http://www.w3.org/Graphics/SVG/1.1/DTD/svg11.dtd">
<svg version="1.1" id="Layer_1" xmlns="http://www.w3.org/2000/svg" xmlns:xlink="http://www.w3.org/1999/xlink" x="0px" y="0px"
	 width="1000px" height="1000px" viewBox="0 0 1000 1000" enable-background="new 0 0 1000 1000" xml:space="preserve">
<g>
	<path fill="#D2232A" d="M647.991,796.097H520.562H393.137V541.26V286.426h127.425h127.429V541.26V796.097L647.991,796.097
		L647.991,796.097z M622.513,240.51v10.214v10.216H566.32h-56.191l56.191-10.216L622.513,240.51L622.513,240.51L622.513,240.51z
		 M647.991,260.939v-25.482v-25.483l-140.158,25.483l-140.156,25.482v280.326v280.327h152.905h152.905V541.266V260.939h-12.749
		H647.991L647.991,260.939L647.991,260.939z"/>
	<path fill="#D2232A" d="M675.742,823.848h-310.32V259.057l284.823-51.785v51.413h25.497V823.848z M369.932,819.338h301.301V263.194
		h-25.496v-50.518l-275.805,50.146V819.338z M650.245,798.35H390.882V284.172h259.363V798.35z M395.392,793.84h250.345V288.681
		H395.392V793.84z M624.768,263.194H510.129l-0.402-4.473l115.041-20.914V263.194z M535.141,258.685h85.118v-15.473L535.141,258.685
		z"/>
</g>
<g>
	<path fill="#D2232A" d="M463.654,515.783l6.607-11.031l6.607-11.031l4.48,7.453l4.479,7.451l-2.052,3.578l-2.053,3.58h-9.034
		H463.654L463.654,515.783L463.654,515.783z M544.846,456.719l16.874,29.532l16.872,29.533h-33.746H511.1l16.873-29.533
		L544.846,456.719L544.846,456.719L544.846,456.719z M535.141,541.281h43.678h43.676l-38.822-67.966l-38.824-67.964l-22.268,38.951
		l-22.267,38.949l-11.722-19.532l-11.723-19.534l-29.117,48.549l-29.117,48.548h24.264h24.265h33.988H535.141L535.141,541.281
		L535.141,541.281z"/>
	<path fill="#D2232A" d="M626.38,543.535H414.653l62.216-103.733l23.397,38.989l44.583-77.984L626.38,543.535z M422.616,539.025
		H618.61l-73.763-129.128l-44.488,77.814l-23.49-39.144L422.616,539.025z M582.479,518.037h-75.264l37.633-65.865L582.479,518.037z
		 M514.984,513.527h59.724l-29.86-52.264L514.984,513.527z M483.028,518.037h-23.352l17.19-28.699l11.576,19.262L483.028,518.037z
		 M467.632,513.527h12.783l2.798-4.875l-6.341-10.548L467.632,513.527z"/>
</g>
<g>
	<path fill="#D2232A" d="M558.809,668.688h-38.227h-38.227c-3.527,0-6.719,1.429-9.029,3.733c-2.309,2.305-3.739,5.487-3.739,8.997
		c0,3.527,1.43,6.719,3.739,9.029c2.309,2.309,5.502,3.737,9.029,3.737h38.227h38.227c3.509,0,6.691-1.427,8.996-3.737
		c2.306-2.311,3.732-5.502,3.732-9.029c0-3.51-1.427-6.692-3.732-8.997C565.5,670.116,562.317,668.688,558.809,668.688
		L558.809,668.688L558.809,668.688z"/>
	<path fill="#D2232A" d="M558.808,696.439h-76.452c-4.015,0-7.789-1.562-10.625-4.398c-2.834-2.836-4.396-6.608-4.396-10.623
		c0-4,1.563-7.762,4.399-10.595c2.839-2.83,6.612-4.391,10.622-4.391h76.452c3.997,0,7.758,1.561,10.593,4.394
		c2.833,2.834,4.392,6.595,4.392,10.592c0,4.012-1.559,7.784-4.391,10.622C566.57,694.877,562.808,696.439,558.808,696.439z
		 M482.355,670.942c-2.808,0-5.449,1.093-7.437,3.075c-1.983,1.979-3.075,4.606-3.075,7.4c0,2.81,1.094,5.45,3.077,7.435
		c1.985,1.985,4.625,3.077,7.435,3.077h76.452c2.795,0,5.423-1.092,7.401-3.075c1.982-1.986,3.074-4.629,3.074-7.437
		c0-2.794-1.092-5.421-3.072-7.403c-1.98-1.981-4.609-3.072-7.403-3.072H482.355z"/>
</g>
<g>
	<path fill="#D2232A" d="M431.362,643.191h89.2h89.201c3.52,0,6.701-1.424,9.003-3.726c2.304-2.304,3.726-5.486,3.726-9.005
		c0-3.517-1.422-6.699-3.726-9.001c-2.303-2.304-5.485-3.728-9.003-3.728h-89.201h-89.2c-3.508,0-6.691,1.424-8.996,3.728
		c-2.306,2.302-3.734,5.484-3.734,9.001c0,3.519,1.43,6.701,3.734,9.005C424.671,641.768,427.854,643.191,431.362,643.191
		L431.362,643.191L431.362,643.191z"/>
	<path fill="#D2232A" d="M609.764,645.446H431.362c-3.999,0-7.76-1.558-10.59-4.387c-2.833-2.83-4.395-6.594-4.395-10.599
		c0-4.004,1.562-7.767,4.395-10.597c2.83-2.829,6.591-4.387,10.59-4.387h178.401c4.007,0,7.771,1.558,10.599,4.387
		c2.827,2.828,4.387,6.593,4.387,10.597c0,4.006-1.558,7.77-4.387,10.599C617.534,643.889,613.771,645.446,609.764,645.446z
		 M431.362,619.987c-2.795,0-5.423,1.089-7.403,3.066c-1.98,1.979-3.072,4.609-3.072,7.407s1.092,5.43,3.074,7.407
		c1.979,1.979,4.606,3.068,7.401,3.068h178.401c2.802,0,5.434-1.09,7.409-3.065c1.978-1.978,3.066-4.607,3.066-7.41
		c0-2.799-1.089-5.432-3.066-7.407c-1.976-1.979-4.607-3.066-7.409-3.066H431.362z"/>
</g>
</svg>
