<?xml version="1.0" encoding="utf-8"?>
<!-- Generator: Adobe Illustrator 15.0.0, SVG Export Plug-In . SVG Version: 6.00 Build 0)  -->
<!DOCTYPE svg PUBLIC "-//W3C//DTD SVG 1.1//EN" "http://www.w3.org/Graphics/SVG/1.1/DTD/svg11.dtd">
<svg version="1.1" id="Layer_1" xmlns="http://www.w3.org/2000/svg" xmlns:xlink="http://www.w3.org/1999/xlink" x="0px" y="0px"
	 width="1000px" height="1000px" viewBox="0 0 1000 1000" enable-background="new 0 0 1000 1000" xml:space="preserve">
<g>
	<path fill="#D2232A" d="M855.141,436.66c-0.02-0.039-0.039-0.049-0.059-0.068c-23.77-27.5-43.887-49.619-64.375-71.309
		c-20.254-21.406-48.496-37.314-81.074-43.594c-7.852-9.756-15.43-18.438-21.855-26.787c-26.973-34.932-70.117-40.273-98.848-22.246
		c-32.969,20.684-43.77,47.783-34.297,91.738c0.664,3.086,2.852,13.32,4.375,19.844c-2.344,3.652-4.531,7.422-6.523,11.289
		c-14.766-5.84-33.086-10.088-52.969-10.088c-19.512,0-37.539,4.092-52.148,9.775c-1.963-3.76-4.082-7.432-6.367-10.977
		c1.523-6.523,3.711-16.758,4.365-19.844c9.482-43.955-1.328-71.055-34.297-91.738c-28.721-18.027-71.855-12.686-98.838,22.246
		c-6.436,8.35-14.014,17.031-21.855,26.787c-32.578,6.279-60.82,22.188-81.074,43.594c-20.498,21.689-40.615,43.809-64.375,71.309
		c-0.02,0.02-0.039,0.029-0.059,0.068c-30.84,31.934-49.814,75.391-49.814,123.281c0,98.027,79.463,177.5,177.5,177.5
		c86.387,0,158.34-61.719,174.229-143.438c9.775,16.523,29.717,27.871,52.734,27.871c23.613,0,43.984-11.914,53.477-29.16
		c15.391,82.383,87.637,144.727,174.453,144.727c98.047,0,177.5-79.473,177.5-177.5C904.945,512.051,885.98,468.594,855.141,436.66z
		 M272.553,701.934c-78.428,0-142.002-63.555-142.002-141.992c0-78.428,63.574-142.002,142.002-142.002
		c78.418,0,142.002,63.574,142.002,142.002C414.555,638.379,350.971,701.934,272.553,701.934z M499.516,589.961
		c-16.338,0-29.59-11.406-29.59-25.488s13.252-25.508,29.59-25.508c16.34,0,29.59,11.426,29.59,25.508
		S515.855,589.961,499.516,589.961z M727.445,701.934c-78.398,0-141.992-63.555-141.992-141.992
		c0-78.428,63.594-142.002,141.992-142.002c78.438,0,142.012,63.574,142.012,142.002
		C869.457,638.379,805.883,701.934,727.445,701.934z"/>
	<path fill="#D2232A" d="M724.379,452.754c-27.109-2.266-53.672,7.422-72.871,26.621c-19.219,19.199-28.906,45.762-26.602,72.871
		c0.117,1.445,1.27,2.559,2.695,2.637c0.859,0.059,1.641-0.293,2.188-0.84c0.391-0.41,0.703-0.918,0.781-1.504
		c4.414-23.379,15.664-44.668,32.539-61.543c16.875-16.885,38.164-28.135,61.562-32.529c0.586-0.127,1.094-0.4,1.504-0.791
		c0.566-0.586,0.879-1.367,0.84-2.188C726.938,454.043,725.805,452.871,724.379,452.754z"/>
	<path fill="#D2232A" d="M272.377,452.754c-27.109-2.266-53.672,7.422-72.871,26.621c-19.209,19.199-28.906,45.762-26.611,72.871
		c0.117,1.445,1.279,2.559,2.715,2.637c0.84,0.059,1.621-0.293,2.188-0.84c0.391-0.41,0.684-0.918,0.781-1.504
		c4.414-23.379,15.654-44.668,32.539-61.543c16.875-16.885,38.154-28.135,61.543-32.529c0.596-0.127,1.113-0.4,1.514-0.791
		c0.557-0.586,0.879-1.367,0.83-2.188C274.936,454.043,273.812,452.871,272.377,452.754z"/>
</g>
</svg>
