<?xml version="1.0" encoding="utf-8"?>
<!-- Generator: Adobe Illustrator 15.0.0, SVG Export Plug-In . SVG Version: 6.00 Build 0)  -->
<!DOCTYPE svg PUBLIC "-//W3C//DTD SVG 1.1//EN" "http://www.w3.org/Graphics/SVG/1.1/DTD/svg11.dtd">
<svg version="1.1" id="Layer_1" xmlns="http://www.w3.org/2000/svg" xmlns:xlink="http://www.w3.org/1999/xlink" x="0px" y="0px"
	 width="841.89px" height="595.28px" viewBox="0 0 841.89 595.28" enable-background="new 0 0 841.89 595.28" xml:space="preserve">
<g>
	<path fill="#FFFFFF" d="M615.697,295.396v-55.434h-10.836v55.434H615.697L615.697,295.396z M617.064,315.248v-12.672h-13.688
		v12.672H617.064L617.064,315.248z"/>
	<path fill="#FFFFFF" d="M273.062,292.896h-11.176c0,9.188-8.438,10.559-12.314,10.559c-4.105,0-12.658-1.371-12.658-10.664v-35.266
		c0-9.188,8.553-10.561,12.658-10.561c3.877,0,12.314,1.373,12.314,10.455h11.176c0-6.758-5.359-20.484-23.49-20.484
		c-18.932,0-23.605,13.727-23.605,20.377v35.479c0,6.863,5.131,20.906,23.49,20.906C268.16,313.697,273.062,299.76,273.062,292.896
		L273.062,292.896z M331.906,312.748v-36.006c0-12.566-7.186-20.168-21.211-20.168c-4.219,0-9.236,1.268-12.545,3.906v-23.018
		h-10.832v75.285h10.832v-36.217c0-6.02,5.703-10.137,12.545-10.137c9.352,0,10.49,5.701,10.49,10.348v36.006H331.906
		L331.906,312.748z M391.088,274.842c0-13.621-10.832-18.268-21.211-18.268c-8.779,0-20.412,4.752-21.664,17.846h10.832
		c0.912-5.914,5.816-8.025,10.947-8.025c5.928,0,10.148,1.9,10.148,8.764v3.801h-13.912c-11.287,0-20.184,5.596-20.184,16.262
		c0,12.883,10.721,18.477,20.299,18.477c5.473,0,11.178-1.898,13.797-5.172v4.223h10.947V274.842L391.088,274.842z M380.141,293.531
		c0,6.439-6.271,10.662-12.428,10.662c-5.359,0-10.947-2.109-10.947-8.973c0-4.752,4.219-6.652,9.578-6.652h13.797V293.531
		L380.141,293.531z M452.549,312.748v-36.006c0-12.566-7.289-20.168-21.203-20.168c-4.109,0-9.123,1.373-12.545,3.906v-3.061
		h-10.836v55.328h10.836v-36.217c0-6.02,5.701-10.137,12.545-10.137c9.344,0,10.492,5.701,10.492,10.348v36.006H452.549
		L452.549,312.748z M501.932,316.865c0,8.871-6.047,10.348-11.289,10.348c-4.562,0-7.984-2.324-9.695-5.809h-11.289
		c2.164,9.609,10.609,15.207,20.984,15.207c11.289,0,22.234-4.328,22.234-19.746v-59.553h-10.945v3.484
		c-1.938-2.111-6.734-4.223-11.289-4.223c-13.461,0-22.352,7.92-22.352,20.168v16.684c0,12.459,8.664,20.377,22.352,20.377
		c4.672,0,9.234-2.215,11.289-4.434V316.865L501.932,316.865z M501.932,293.426c0,6.439-4.219,10.346-11.289,10.346
		c-9.469,0-11.516-5.596-11.516-10.346v-16.684c0-6.547,4.328-10.348,11.516-10.348c9.352,0,11.289,5.701,11.289,10.348V293.426
		L501.932,293.426z M574.455,276.742c0-12.461-9.125-20.168-22.688-20.168c-13.461,0-22.695,7.92-22.695,20.168v16.684
		c0,12.459,9.008,20.377,22.695,20.377c12.312,0,20.867-7.285,22.461-19.217h-11.18c-1.023,5.811-5.125,9.186-11.281,9.186
		c-9.469,0-11.859-5.596-11.859-10.346v-4.752h34.547V276.742L574.455,276.742z M563.51,278.748h-23.602v-2.006
		c0-6.547,4.438-10.348,11.859-10.348c9.344,0,11.742,5.701,11.742,10.348V278.748L563.51,278.748z"/>
	<path fill="#D2232A" d="M116.223,226.436c5.125,0,10.047,0.879,14.627,2.484c-21.787,1.416-39.018,19.531-39.018,41.674
		c0,22.141,17.23,40.252,39.018,41.67c-4.58,1.609-9.502,2.488-14.627,2.488c-24.389,0-44.158-19.775-44.158-44.158
		C72.064,246.205,91.834,226.436,116.223,226.436L116.223,226.436L116.223,226.436z"/>
	<path fill="#FFFFFF" d="M189.988,242.998c-10.014-19.406-30.254-32.68-53.598-32.68c-15.346,0-29.354,5.736-39.996,15.182
		c6.018-2.625,12.662-4.082,19.648-4.082c16.932,0,31.859,8.555,40.711,21.58H189.988L189.988,242.998L189.988,242.998z"/>
	<path fill="#FFFFFF" d="M156.754,298.188c-8.852,13.025-23.779,21.584-40.711,21.584c-6.986,0-13.631-1.457-19.648-4.086
		c10.643,9.449,24.65,15.18,39.996,15.18c23.344,0,43.584-13.273,53.598-32.678H156.754L156.754,298.188L156.754,298.188z"/>
	<path fill="#D2232A" d="M548.619,375.393l-9.773-34.141h-7.242l-9.617,34.141h5.172l2.633-9.289h11.125l2.578,9.289H548.619
		L548.619,375.393z M539.619,361.506h-8.641l4.398-15.227L539.619,361.506L539.619,361.506z M558.08,359.064
		c0-2.105,0.93-4.691,5.172-4.691c3.258,0,5.227,1.723,5.227,4.691v7.566c0,2.156-0.938,4.691-5.227,4.691
		c-3.258,0-5.172-1.77-5.172-4.691V359.064L558.08,359.064z M553.119,366.631c0,5.555,4.078,9.242,10.133,9.242
		c2.07,0,4.398-1.055,5.227-2.012v1.531h4.961v-34.141h-4.961v10.727c-0.883-1.055-3.055-2.059-5.227-2.059
		c-6.148,0-10.133,3.496-10.133,9.145V366.631L553.119,366.631z M578.252,350.252l7.656,25.141h6.719l7.656-25.141h-5.125
		l-5.891,19.684l-5.844-19.684H578.252L578.252,350.252z M625.158,359.064c0-5.648-4.141-9.145-10.297-9.145
		c-6.094,0-10.289,3.59-10.289,9.145v7.566c0,5.652,4.086,9.242,10.289,9.242c5.594,0,9.469-3.305,10.188-8.715h-5.062
		c-0.469,2.633-2.328,4.164-5.125,4.164c-4.289,0-5.375-2.535-5.375-4.691v-2.156h15.672V359.064L625.158,359.064z M620.189,359.975
		h-10.703v-0.91c0-2.969,2.016-4.691,5.375-4.691c4.242,0,5.328,2.586,5.328,4.691V359.975L620.189,359.975z M643.877,354.85v-4.547
		h-2.07c-2.172,0-3.82,0.719-4.648,2.25v-2.25h-4.914v25.09h4.914v-15.801c0-3.543,2.273-4.742,3.977-4.742H643.877L643.877,354.85z
		 M646.15,354.85h4.922v13.793c0,4.836,2.992,6.75,6.82,6.75h3.828v-4.5h-3.617c-1.141,0-2.125-0.48-2.125-2.059V354.85h5.641
		v-4.547h-5.641v-9.051h-4.906v9.051h-4.922V354.85L646.15,354.85z M673.15,375.393v-25.141h-4.859v25.141H673.15L673.15,375.393z
		 M673.564,347.045v-6.035h-5.742v6.035H673.564L673.564,347.045z M700.354,367.732c0-3.398-2.641-5.461-5.789-6.418
		c-2.18-0.668-4.922-1.195-6.938-1.723c-1.547-0.383-2.43-1.199-2.43-2.156c0-2.441,2.383-3.016,4.656-3.016
		c3.055,0,4.711,1.293,5.117,3.59h5.016c-0.516-5.172-4.547-8.043-10.031-8.043c-5.07,0-9.617,2.059-9.617,7.469
		c0,3.305,2.586,5.41,6,6.227c2.172,0.527,4.289,0.91,6.516,1.578c1.555,0.434,2.633,1.293,2.633,2.492
		c0,2.922-2.789,3.496-5.375,3.496c-3,0-4.961-1.34-5.273-4.07h-4.914c0.312,5.41,4.445,8.617,10.188,8.617
		C695.596,375.775,700.354,373.623,700.354,367.732L700.354,367.732z M712.041,375.393v-25.141h-4.867v25.141H712.041
		L712.041,375.393z M712.455,347.045v-6.035h-5.742v6.035H712.455L712.455,347.045z M740.533,375.393v-16.328
		c0-5.699-3.312-9.145-9.617-9.145c-1.867,0-4.141,0.621-5.688,1.77v-1.387h-4.914v25.09h4.914v-16.422
		c0-2.73,2.586-4.598,5.688-4.598c4.242,0,4.758,2.586,4.758,4.691v16.328H740.533L740.533,375.393z M762.932,377.26
		c0,4.023-2.742,4.695-5.125,4.695c-2.062,0-3.617-1.055-4.391-2.633h-5.125c0.984,4.355,4.812,6.895,9.516,6.895
		c5.125,0,10.086-1.965,10.086-8.957v-27.008h-4.961v1.582c-0.883-0.957-3.055-1.914-5.125-1.914c-6.102,0-10.133,3.59-10.133,9.145
		v7.566c0,5.652,3.93,9.242,10.133,9.242c2.125,0,4.188-1.004,5.125-2.012V377.26L762.932,377.26z M762.932,366.631
		c0,2.922-1.922,4.691-5.125,4.691c-4.289,0-5.219-2.535-5.219-4.691v-7.566c0-2.969,1.961-4.691,5.219-4.691
		c4.242,0,5.125,2.586,5.125,4.691V366.631L762.932,366.631z"/>
</g>
</svg>
