<?xml version="1.0" encoding="utf-8"?>
<!-- Generator: Adobe Illustrator 15.0.0, SVG Export Plug-In . SVG Version: 6.00 Build 0)  -->
<!DOCTYPE svg PUBLIC "-//W3C//DTD SVG 1.1//EN" "http://www.w3.org/Graphics/SVG/1.1/DTD/svg11.dtd">
<svg version="1.1" id="Layer_1" xmlns="http://www.w3.org/2000/svg" xmlns:xlink="http://www.w3.org/1999/xlink" x="0px" y="0px"
	 width="841.89px" height="595.28px" viewBox="0 0 841.89 595.28" enable-background="new 0 0 841.89 595.28" xml:space="preserve">
<g>
	<path fill="#D2232A" d="M412.223,253.484c5.125,0,10.047,0.879,14.627,2.484c-21.787,1.416-39.018,19.531-39.018,41.674
		c0,22.141,17.23,40.252,39.018,41.67c-4.58,1.609-9.502,2.488-14.627,2.488c-24.389,0-44.158-19.775-44.158-44.158
		C368.064,273.254,387.834,253.484,412.223,253.484L412.223,253.484L412.223,253.484z"/>
	<path fill="#FFFFFF" d="M485.988,270.047c-10.014-19.406-30.254-32.68-53.598-32.68c-15.346,0-29.354,5.736-39.996,15.182
		c6.018-2.625,12.662-4.082,19.648-4.082c16.932,0,31.859,8.555,40.711,21.58H485.988L485.988,270.047L485.988,270.047z"/>
	<path fill="#FFFFFF" d="M452.754,325.236c-8.852,13.025-23.779,21.584-40.711,21.584c-6.986,0-13.631-1.457-19.648-4.086
		c10.643,9.449,24.65,15.18,39.996,15.18c23.344,0,43.584-13.273,53.598-32.678H452.754L452.754,325.236L452.754,325.236z"/>
</g>
</svg>
